<svg width="326" height="376" viewBox="0 0 326 376" fill="none" xmlns="http://www.w3.org/2000/svg">
<path fill-rule="evenodd" clip-rule="evenodd" d="M16 0C7.16344 0 0 7.16344 0 16V255C9.88343 255 18.0924 262.169 19.7106 271.591C20.0729 271.226 20.5749 271 21.1296 271H27.1667C28.2712 271 29.1667 271.895 29.1667 273C29.1667 274.105 28.2712 275 27.1667 275H21.1296C20.7092 275 20.319 274.87 19.997 274.649C19.999 274.765 20 274.883 20 275C20 286.046 11.0457 295 0 295V360C0 368.837 7.16345 376 16 376H310C318.837 376 326 368.837 326 360V295C314.954 295 306 286.046 306 275C306 274.883 306.001 274.765 306.003 274.649C305.681 274.87 305.291 275 304.87 275H298.833C297.729 275 296.833 274.105 296.833 273C296.833 271.895 297.729 271 298.833 271H304.87C305.425 271 305.927 271.226 306.289 271.591C307.908 262.169 316.117 255 326 255V16C326 7.16344 318.837 0 310 0H16ZM33.2037 271C32.0991 271 31.2037 271.895 31.2037 273C31.2037 274.105 32.0991 275 33.2037 275H39.2407C40.3453 275 41.2407 274.105 41.2407 273C41.2407 271.895 40.3453 271 39.2407 271H33.2037ZM45.2778 271C44.1732 271 43.2778 271.895 43.2778 273C43.2778 274.105 44.1732 275 45.2778 275H51.3148C52.4194 275 53.3148 274.105 53.3148 273C53.3148 271.895 52.4194 271 51.3148 271H45.2778ZM57.3519 271C56.2473 271 55.3519 271.895 55.3519 273C55.3519 274.105 56.2473 275 57.3519 275H63.3889C64.4935 275 65.3889 274.105 65.3889 273C65.3889 271.895 64.4935 271 63.3889 271H57.3519ZM69.4259 271C68.3214 271 67.4259 271.895 67.4259 273C67.4259 274.105 68.3214 275 69.4259 275H75.463C76.5675 275 77.463 274.105 77.463 273C77.463 271.895 76.5675 271 75.463 271H69.4259ZM81.5 271C80.3954 271 79.5 271.895 79.5 273C79.5 274.105 80.3954 275 81.5 275H87.537C88.6416 275 89.537 274.105 89.537 273C89.537 271.895 88.6416 271 87.537 271H81.5ZM93.5741 271C92.4695 271 91.5741 271.895 91.5741 273C91.5741 274.105 92.4695 275 93.5741 275H99.6111C100.716 275 101.611 274.105 101.611 273C101.611 271.895 100.716 271 99.6111 271H93.5741ZM105.648 271C104.544 271 103.648 271.895 103.648 273C103.648 274.105 104.544 275 105.648 275H111.685C112.79 275 113.685 274.105 113.685 273C113.685 271.895 112.79 271 111.685 271H105.648ZM117.722 271C116.618 271 115.722 271.895 115.722 273C115.722 274.105 116.618 275 117.722 275H123.759C124.864 275 125.759 274.105 125.759 273C125.759 271.895 124.864 271 123.759 271H117.722ZM129.796 271C128.692 271 127.796 271.895 127.796 273C127.796 274.105 128.692 275 129.796 275H135.833C136.938 275 137.833 274.105 137.833 273C137.833 271.895 136.938 271 135.833 271H129.796ZM141.87 271C140.766 271 139.87 271.895 139.87 273C139.87 274.105 140.766 275 141.87 275H147.907C149.012 275 149.907 274.105 149.907 273C149.907 271.895 149.012 271 147.907 271H141.87ZM153.944 271C152.84 271 151.944 271.895 151.944 273C151.944 274.105 152.84 275 153.944 275H159.981C161.086 275 161.981 274.105 161.981 273C161.981 271.895 161.086 271 159.981 271H153.944ZM166.018 271C164.914 271 164.018 271.895 164.018 273C164.018 274.105 164.914 275 166.018 275H172.056C173.16 275 174.056 274.105 174.056 273C174.056 271.895 173.16 271 172.056 271H166.018ZM178.093 271C176.988 271 176.093 271.895 176.093 273C176.093 274.105 176.988 275 178.093 275H184.13C185.234 275 186.13 274.105 186.13 273C186.13 271.895 185.234 271 184.13 271H178.093ZM190.167 271C189.062 271 188.167 271.895 188.167 273C188.167 274.105 189.062 275 190.167 275H196.204C197.308 275 198.204 274.105 198.204 273C198.204 271.895 197.308 271 196.204 271H190.167ZM202.241 271C201.136 271 200.241 271.895 200.241 273C200.241 274.105 201.136 275 202.241 275H208.278C209.382 275 210.278 274.105 210.278 273C210.278 271.895 209.382 271 208.278 271H202.241ZM214.315 271C213.21 271 212.315 271.895 212.315 273C212.315 274.105 213.21 275 214.315 275H220.352C221.456 275 222.352 274.105 222.352 273C222.352 271.895 221.456 271 220.352 271H214.315ZM226.389 271C225.284 271 224.389 271.895 224.389 273C224.389 274.105 225.284 275 226.389 275H232.426C233.53 275 234.426 274.105 234.426 273C234.426 271.895 233.53 271 232.426 271H226.389ZM238.463 271C237.358 271 236.463 271.895 236.463 273C236.463 274.105 237.358 275 238.463 275H244.5C245.604 275 246.5 274.105 246.5 273C246.5 271.895 245.604 271 244.5 271H238.463ZM250.537 271C249.432 271 248.537 271.895 248.537 273C248.537 274.105 249.432 275 250.537 275H256.574C257.679 275 258.574 274.105 258.574 273C258.574 271.895 257.679 271 256.574 271H250.537ZM262.611 271C261.506 271 260.611 271.895 260.611 273C260.611 274.105 261.506 275 262.611 275H268.648C269.753 275 270.648 274.105 270.648 273C270.648 271.895 269.753 271 268.648 271H262.611ZM274.685 271C273.581 271 272.685 271.895 272.685 273C272.685 274.105 273.581 275 274.685 275H280.722C281.827 275 282.722 274.105 282.722 273C282.722 271.895 281.827 271 280.722 271H274.685ZM286.759 271C285.655 271 284.759 271.895 284.759 273C284.759 274.105 285.655 275 286.759 275H292.796C293.901 275 294.796 274.105 294.796 273C294.796 271.895 293.901 271 292.796 271H286.759Z" fill="white"/>
</svg>
