<svg width="281" height="109" viewBox="0 0 281 109" fill="none" xmlns="http://www.w3.org/2000/svg">
<g clip-path="url(#clip0_152_1206)">
<path d="M7.71202 86.815C3.1363 86.815 0 84.4643 0 80.6444V75.9429C2.11817 76.2897 4.1515 76.463 4.32119 76.463C8.47269 76.463 8.8969 74.3797 8.8969 70.3835V42.1631H13.4726C18.7388 42.1631 20.421 44.3346 20.421 49.8029V74.4855C20.421 80.9088 15.0817 86.815 7.71202 86.815Z" fill="url(#paint0_linear_152_1206)"/>
<path d="M80.2359 76.8245C79.4825 76.8325 78.738 76.9896 78.045 77.2866C77.352 77.5837 76.724 78.0149 76.197 78.5557C75.6699 79.0965 75.2541 79.7363 74.9733 80.4385C74.6924 81.1407 74.552 81.8917 74.5601 82.6484C74.5601 86.1216 77.1932 88.6398 80.2359 88.6398C83.2025 88.6398 86.1662 86.1216 86.0872 82.6484C86.065 81.1016 85.4398 79.6252 84.3457 78.5363C83.2517 77.4474 81.7761 76.8328 80.2359 76.8245Z" fill="url(#paint1_linear_152_1206)"/>
<path d="M84.0511 42.0749H79.8966V56.8433C79.8966 59.8875 78.7264 61.5448 75.8329 61.7945H61.7693L61.8512 55.9765C61.8512 47.7255 58.7178 39.4715 51.1784 36.254C49.1667 35.5221 47.0454 35.1405 44.9058 35.1256C33.6392 35.1256 27.6211 43.8145 27.6211 54.4103C27.6211 69.0083 39.3998 71.8733 49.3119 72.3933C46.8543 74.8263 41.4302 77.2593 32.7059 77.4327V81.6875C32.7059 84.5525 35.339 86.8121 39.4846 86.8121C53.7208 86.8121 59.5634 78.7344 61.1754 72.4786H76.6813C86.5964 72.1318 91.3418 65.7026 91.3418 57.3605V49.8059C91.3388 44.6813 88.8784 42.0749 84.0511 42.0749ZM51.3452 61.7945H47.7876C43.127 61.7945 37.9603 61.1011 37.9603 53.2732C37.9603 48.2338 40.0785 44.4962 44.23 44.4962C51.1784 44.4962 51.2516 52.8383 51.3452 59.8758V61.7945Z" fill="url(#paint2_linear_152_1206)"/>
<path d="M149.375 35.2138C141.496 35.2138 135.057 40.4295 130.066 47.4611V27.5652C130.066 22.182 128.018 20.3602 122.693 20.3602H119.811C119.811 23.2986 119.811 55.4565 119.899 61.7917H114.13C111.842 61.6183 110.569 60.3225 110.233 58.4067V26.3516C110.233 22.7873 106.842 20.3602 103.963 20.3602H98.5388V57.3635C98.5388 65.7909 103.454 72.1349 113.363 72.4816H163.187C166.405 72.4816 168.453 67.2689 168.453 60.6663C168.441 49.9793 163.272 35.2138 149.375 35.2138ZM158.187 61.7946H131.836C133.702 55.9766 139.378 47.3759 147.426 46.941C156.408 47.3759 158.187 53.717 158.187 59.6261V61.7946Z" fill="url(#paint3_linear_152_1206)"/>
<path d="M274.642 49.0712C274.397 53.4495 270.198 57.146 263.385 59.7993C260.166 47.7196 242.32 37.2765 220.015 35.3372C208.973 34.3763 201.042 35.6545 192.806 38.5694V28.5788C202.215 25.7727 211.188 24.5297 223.327 25.3466L224.377 25.423L225.582 25.52L226.653 25.6199L227.531 25.711C236.563 26.7083 245.436 28.8304 253.946 32.0285C261.047 34.8611 267.088 38.4284 271.65 42.4481C273.674 44.6254 274.768 46.8674 274.642 49.0712Z" fill="url(#paint4_linear_152_1206)"/>
<path d="M205.679 23.5161C205.679 19.6797 202.583 16.5697 198.763 16.5697C194.943 16.5697 191.847 19.6797 191.847 23.5161V57.9483C191.847 61.7847 194.943 64.8947 198.763 64.8947C202.583 64.8947 205.679 61.7847 205.679 57.9483V23.5161Z" fill="url(#paint5_linear_152_1206)"/>
<path d="M205.679 6.94638C205.679 3.11 202.583 0 198.763 0C194.943 0 191.847 3.11 191.847 6.94638C191.847 10.7828 194.943 13.8928 198.763 13.8928C202.583 13.8928 205.679 10.7828 205.679 6.94638Z" fill="url(#paint6_linear_152_1206)"/>
<path d="M221.937 35.8721C221.937 30.3723 217.498 25.9138 212.022 25.9138C206.546 25.9138 202.107 30.3723 202.107 35.8721V76.2898C202.107 81.7896 206.546 86.248 212.022 86.248C217.498 86.248 221.937 81.7896 221.937 76.2898V35.8721Z" fill="url(#paint7_linear_152_1206)"/>
<path d="M221.937 12.0239C221.937 6.52413 217.498 2.06567 212.022 2.06567C206.546 2.06567 202.107 6.52413 202.107 12.0239C202.107 17.5237 206.546 21.9822 212.022 21.9822C217.498 21.9822 221.937 17.5237 221.937 12.0239Z" fill="url(#paint8_linear_152_1206)"/>
<path d="M238.897 46.2241C238.897 39.3708 233.366 33.8152 226.542 33.8152C219.719 33.8152 214.187 39.3708 214.187 46.2241V96.5912C214.187 103.444 219.719 109 226.542 109C233.366 109 238.897 103.444 238.897 96.5912V46.2241Z" fill="url(#paint9_linear_152_1206)"/>
<path d="M238.897 16.508C238.897 9.65476 233.366 4.09912 226.542 4.09912C219.719 4.09912 214.187 9.65476 214.187 16.508C214.187 23.3612 219.719 28.9169 226.542 28.9169C233.366 28.9169 238.897 23.3612 238.897 16.508Z" fill="url(#paint10_linear_152_1206)"/>
<path d="M280.938 61.2627C280.149 70.4423 271.828 78.0116 259.289 82.6043L253.946 79.0988L243.122 71.9732C243.088 71.9514 243.06 71.9214 243.041 71.8859C243.021 71.8505 243.011 71.8108 243.011 71.7704C243.011 71.7301 243.021 71.6903 243.041 71.6549C243.06 71.6195 243.088 71.5895 243.122 71.5677L259.283 61.1863C260.74 60.7632 262.105 60.3028 263.379 59.8052C270.193 57.1607 274.391 53.4554 274.637 49.0771C274.762 46.8704 273.668 44.6284 271.644 42.451C278.033 48.0752 281.512 54.5955 280.938 61.2627Z" fill="url(#paint11_linear_152_1206)"/>
</g>
<defs>
<linearGradient id="paint0_linear_152_1206" x1="10.9332" y1="117.715" x2="10.0271" y2="52.4447" gradientUnits="userSpaceOnUse">
<stop stop-color="#028C6B"/>
<stop offset="1" stop-color="#01D7AB"/>
</linearGradient>
<linearGradient id="paint1_linear_152_1206" x1="80.7918" y1="116.749" x2="79.8858" y2="51.4779" gradientUnits="userSpaceOnUse">
<stop stop-color="#028C6B"/>
<stop offset="1" stop-color="#01D7AB"/>
</linearGradient>
<linearGradient id="paint2_linear_152_1206" x1="60.3708" y1="117.031" x2="59.4678" y2="51.76" gradientUnits="userSpaceOnUse">
<stop stop-color="#028C6B"/>
<stop offset="1" stop-color="#01D7AB"/>
</linearGradient>
<linearGradient id="paint3_linear_152_1206" x1="134.273" y1="116.008" x2="133.37" y2="50.7375" gradientUnits="userSpaceOnUse">
<stop stop-color="#028C6B"/>
<stop offset="1" stop-color="#01D7AB"/>
</linearGradient>
<linearGradient id="paint4_linear_152_1206" x1="210.228" y1="14.4745" x2="264.788" y2="78.4621" gradientUnits="userSpaceOnUse">
<stop stop-color="#01D7AB" stop-opacity="0"/>
<stop offset="0.14" stop-color="#01CFA4" stop-opacity="0.11"/>
<stop offset="0.4" stop-color="#01BA92" stop-opacity="0.39"/>
<stop offset="0.76" stop-color="#029875" stop-opacity="0.84"/>
<stop offset="0.87" stop-color="#028C6B"/>
</linearGradient>
<linearGradient id="paint5_linear_152_1206" x1="190.799" y1="40.5265" x2="218.874" y2="41.246" gradientUnits="userSpaceOnUse">
<stop stop-color="#01D7AB"/>
<stop offset="1" stop-color="#028C6B"/>
</linearGradient>
<linearGradient id="paint6_linear_152_1206" x1="191.627" y1="6.76126" x2="219.257" y2="7.46911" gradientUnits="userSpaceOnUse">
<stop stop-color="#01D7AB"/>
<stop offset="1" stop-color="#028C6B"/>
</linearGradient>
<linearGradient id="paint7_linear_152_1206" x1="201.574" y1="56.1294" x2="226.542" y2="56.01" gradientUnits="userSpaceOnUse">
<stop stop-color="#01D7AB"/>
<stop offset="1" stop-color="#028C6B"/>
</linearGradient>
<linearGradient id="paint8_linear_152_1206" x1="201.434" y1="12.0739" x2="226.334" y2="11.9574" gradientUnits="userSpaceOnUse">
<stop stop-color="#01D7AB"/>
<stop offset="1" stop-color="#028C6B"/>
</linearGradient>
<linearGradient id="paint9_linear_152_1206" x1="239.099" y1="71.5296" x2="214.775" y2="71.2936" gradientUnits="userSpaceOnUse">
<stop stop-color="#028C6B"/>
<stop offset="1" stop-color="#01D7AB"/>
</linearGradient>
<linearGradient id="paint10_linear_152_1206" x1="239.465" y1="16.6343" x2="215.275" y2="16.3984" gradientUnits="userSpaceOnUse">
<stop stop-color="#028C6B"/>
<stop offset="1" stop-color="#01D7AB"/>
</linearGradient>
<linearGradient id="paint11_linear_152_1206" x1="282.787" y1="43.2503" x2="251.493" y2="81.4308" gradientUnits="userSpaceOnUse">
<stop stop-color="#01D7AB"/>
<stop offset="1" stop-color="#028C6B"/>
</linearGradient>
<clipPath id="clip0_152_1206">
<rect width="281" height="109" fill="white"/>
</clipPath>
</defs>
</svg>
