<svg width="205" height="283" viewBox="0 0 205 283" fill="none" xmlns="http://www.w3.org/2000/svg">
<g clip-path="url(#clip0_152_1142)">
<path d="M9.38429 280.796C3.81475 280.796 0 277.959 0 273.337V267.658C2.57973 268.082 5.05455 268.291 5.24528 268.291C10.2998 268.291 10.8148 265.769 10.8148 260.937V226.784H16.3987C22.7884 226.784 24.8531 229.411 24.8531 236.028V265.873C24.8531 273.651 18.3537 280.796 9.38429 280.796Z" fill="url(#paint0_linear_152_1142)"/>
<path d="M97.6529 268.71C95.8009 268.73 94.0328 269.484 92.7371 270.805C91.4415 272.126 90.7243 273.907 90.7434 275.755C90.7434 279.958 93.9383 283 97.6529 283C101.263 283 104.872 279.958 104.772 275.755C104.747 273.884 103.987 272.097 102.656 270.779C101.324 269.462 99.5277 268.719 97.6529 268.71Z" fill="url(#paint1_linear_152_1142)"/>
<path d="M102.293 226.674H97.2381V244.539C97.2381 248.223 95.8075 250.217 92.2932 250.532H75.1745L75.2746 243.492C75.2746 233.495 71.4599 223.528 62.2854 219.634C59.8385 218.749 57.2584 218.287 54.6559 218.268C40.9419 218.268 33.6176 228.778 33.6176 241.592C33.6176 259.247 47.9515 262.713 60.0156 263.346C57.0258 266.287 50.4263 269.234 39.8022 269.443V274.594C39.8022 278.059 42.9971 280.782 48.0516 280.782C65.3801 280.782 72.4946 271.009 74.4545 263.441H93.3184C105.387 263.022 111.167 255.244 111.167 245.158V236.028C111.167 229.825 108.172 226.674 102.293 226.674ZM62.4905 250.532H58.175C52.5053 250.532 46.2158 249.689 46.2158 240.236C46.2158 234.138 48.7907 229.616 53.8453 229.616C62.2997 229.616 62.3999 239.707 62.5048 248.223L62.4905 250.532Z" fill="url(#paint2_linear_152_1142)"/>
<path d="M181.797 218.377C172.207 218.377 164.368 224.685 158.288 233.191V209.124C158.288 202.612 155.809 200.408 149.314 200.408H145.809C145.809 203.978 145.809 242.863 145.914 250.532H138.9C136.115 250.322 134.57 248.742 134.16 246.433V207.658C134.16 203.345 130.035 200.408 126.531 200.408H119.926V245.153C119.926 255.344 125.911 263.017 137.97 263.436H198.606C202.525 263.436 205 257.129 205 249.156C205 236.237 198.71 218.377 181.797 218.377ZM192.521 250.532H160.453C162.723 243.492 169.628 233.091 179.427 232.562C190.356 233.091 192.521 240.759 192.521 247.904V250.532Z" fill="url(#paint3_linear_152_1142)"/>
<path d="M174.415 79.493C174.015 86.5855 167.167 92.5736 156.066 96.872C150.821 77.3034 121.734 60.3861 85.3742 57.2445C67.3829 55.6879 54.4556 57.7586 41.0277 62.4805V46.2963C56.3678 41.7505 70.9878 39.737 90.7721 41.0603L92.4839 41.184L94.4485 41.3411L96.1938 41.5029L97.6243 41.6505C112.342 43.2669 126.801 46.7047 140.669 51.8846C152.247 56.4733 162.094 62.2521 169.523 68.7638C172.832 72.291 174.62 75.923 174.415 79.493Z" fill="url(#paint4_linear_152_1142)"/>
<path d="M62.0088 38.0948C62.0088 31.8801 56.9619 26.842 50.7362 26.842C44.5105 26.842 39.4636 31.8801 39.4636 38.0948V93.8732C39.4636 100.088 44.5105 105.126 50.7362 105.126C56.9619 105.126 62.0088 100.088 62.0088 93.8732V38.0948Z" fill="url(#paint5_linear_152_1142)"/>
<path d="M62.0088 11.2528C62.0088 5.03804 56.9619 0 50.7362 0C44.5105 0 39.4636 5.03804 39.4636 11.2528C39.4636 17.4675 44.5105 22.5056 50.7362 22.5056C56.9619 22.5056 62.0088 17.4675 62.0088 11.2528Z" fill="url(#paint6_linear_152_1142)"/>
<path d="M88.507 58.1109C88.507 49.2015 81.2718 41.979 72.3468 41.979C63.4217 41.979 56.1865 49.2015 56.1865 58.1109V123.586C56.1865 132.495 63.4217 139.717 72.3468 139.717C81.2718 139.717 88.507 132.495 88.507 123.586V58.1109Z" fill="url(#paint7_linear_152_1142)"/>
<path d="M88.507 19.4782C88.507 10.5688 81.2718 3.34631 72.3468 3.34631C63.4217 3.34631 56.1865 10.5688 56.1865 19.4782C56.1865 28.3875 63.4217 35.61 72.3468 35.61C81.2718 35.61 88.507 28.3875 88.507 19.4782Z" fill="url(#paint8_linear_152_1142)"/>
<path d="M116.154 74.8806C116.154 63.7787 107.139 54.7788 96.0172 54.7788C84.8958 54.7788 75.8801 63.7787 75.8801 74.8806V156.473C75.8801 167.575 84.8958 176.575 96.0172 176.575C107.139 176.575 116.154 167.575 116.154 156.473V74.8806Z" fill="url(#paint9_linear_152_1142)"/>
<path d="M116.154 26.742C116.154 15.6401 107.139 6.64026 96.0172 6.64026C84.8958 6.64026 75.8801 15.6401 75.8801 26.742C75.8801 37.8439 84.8958 46.8438 96.0172 46.8438C107.139 46.8438 116.154 37.8439 116.154 26.742Z" fill="url(#paint10_linear_152_1142)"/>
<path d="M184.672 99.2426C183.385 114.113 169.823 126.375 149.386 133.815L140.669 128.136L123.026 116.593C122.972 116.557 122.927 116.508 122.897 116.451C122.866 116.393 122.85 116.33 122.85 116.265C122.85 116.2 122.866 116.136 122.897 116.078C122.927 116.021 122.972 115.972 123.026 115.936L149.367 99.1188C151.751 98.4334 153.982 97.6908 156.066 96.8816C167.167 92.5975 174.015 86.5951 174.415 79.5026C174.62 75.9278 172.832 72.2959 169.532 68.7687C179.937 77.8794 185.612 88.442 184.672 99.2426Z" fill="url(#paint11_linear_152_1142)"/>
</g>
<defs>
<linearGradient id="paint0_linear_152_1142" x1="13.3039" y1="318.172" x2="12.2158" y2="239.222" gradientUnits="userSpaceOnUse">
<stop stop-color="#028C6B"/>
<stop offset="1" stop-color="#01D7AB"/>
</linearGradient>
<linearGradient id="paint1_linear_152_1142" x1="98.3252" y1="317.001" x2="97.2418" y2="238.051" gradientUnits="userSpaceOnUse">
<stop stop-color="#028C6B"/>
<stop offset="1" stop-color="#01D7AB"/>
</linearGradient>
<linearGradient id="paint2_linear_152_1142" x1="73.4769" y1="317.344" x2="72.3888" y2="238.393" gradientUnits="userSpaceOnUse">
<stop stop-color="#028C6B"/>
<stop offset="1" stop-color="#01D7AB"/>
</linearGradient>
<linearGradient id="paint3_linear_152_1142" x1="163.414" y1="316.106" x2="162.331" y2="237.151" gradientUnits="userSpaceOnUse">
<stop stop-color="#028C6B"/>
<stop offset="1" stop-color="#01D7AB"/>
</linearGradient>
<linearGradient id="paint4_linear_152_1142" x1="69.4238" y1="23.448" x2="157.726" y2="127.637" gradientUnits="userSpaceOnUse">
<stop stop-color="#01D7AB" stop-opacity="0"/>
<stop offset="0.14" stop-color="#01CFA4" stop-opacity="0.11"/>
<stop offset="0.4" stop-color="#01BA92" stop-opacity="0.39"/>
<stop offset="0.76" stop-color="#029875" stop-opacity="0.84"/>
<stop offset="0.87" stop-color="#028C6B"/>
</linearGradient>
<linearGradient id="paint5_linear_152_1142" x1="37.7613" y1="65.6508" x2="83.5144" y2="66.8307" gradientUnits="userSpaceOnUse">
<stop stop-color="#01D7AB"/>
<stop offset="1" stop-color="#028C6B"/>
</linearGradient>
<linearGradient id="paint6_linear_152_1142" x1="39.1108" y1="10.9529" x2="84.139" y2="12.1137" gradientUnits="userSpaceOnUse">
<stop stop-color="#01D7AB"/>
<stop offset="1" stop-color="#028C6B"/>
</linearGradient>
<linearGradient id="paint7_linear_152_1142" x1="55.3234" y1="90.9267" x2="96.0173" y2="90.7309" gradientUnits="userSpaceOnUse">
<stop stop-color="#01D7AB"/>
<stop offset="1" stop-color="#028C6B"/>
</linearGradient>
<linearGradient id="paint8_linear_152_1142" x1="55.0898" y1="19.5591" x2="95.6787" y2="19.368" gradientUnits="userSpaceOnUse">
<stop stop-color="#01D7AB"/>
<stop offset="1" stop-color="#028C6B"/>
</linearGradient>
<linearGradient id="paint9_linear_152_1142" x1="116.479" y1="115.874" x2="76.8386" y2="115.487" gradientUnits="userSpaceOnUse">
<stop stop-color="#028C6B"/>
<stop offset="1" stop-color="#01D7AB"/>
</linearGradient>
<linearGradient id="paint10_linear_152_1142" x1="117.075" y1="26.9467" x2="77.6492" y2="26.5598" gradientUnits="userSpaceOnUse">
<stop stop-color="#028C6B"/>
<stop offset="1" stop-color="#01D7AB"/>
</linearGradient>
<linearGradient id="paint11_linear_152_1142" x1="187.686" y1="70.0634" x2="137.052" y2="132.217" gradientUnits="userSpaceOnUse">
<stop stop-color="#01D7AB"/>
<stop offset="1" stop-color="#028C6B"/>
</linearGradient>
<clipPath id="clip0_152_1142">
<rect width="205" height="283" fill="white"/>
</clipPath>
</defs>
</svg>
