<svg width="33" height="32" viewBox="0 0 33 32" fill="none" xmlns="http://www.w3.org/2000/svg">
    <path d="M13.833 12.107V8.333c-.546 0-1-.453-1-1v-3h-3c-5.88 0-7.666 1.787-7.666 7.667v.667c0 .546.453 1 1 1A2.344 2.344 0 0 1 5.5 16a2.344 2.344 0 0 1-2.333 2.333c-.547 0-1 .454-1 1V20c0 5.88 1.786 7.667 7.666 7.667h3v-3c0-.547.454-1 1-1v-3.774c-.546 0-1-.453-1-1v-5.786c0-.547.454-1 1-1z" fill="#161616"/>
    <path opacity=".4" d="M27.5 16.667A2.345 2.345 0 0 0 29.833 19c.547 0 1 .453 1 1 0 5.88-1.786 7.667-7.666 7.667h-8.334v-3c0-.547-.453-1-1-1v-3.774c.547 0 1-.453 1-1v-5.786c0-.547-.453-1-1-1V8.333c.547 0 1-.453 1-1v-3h8.334c5.88 0 7.666 1.787 7.666 7.667v1.333c0 .547-.453 1-1 1a2.345 2.345 0 0 0-2.333 2.334z" fill="#161616"/>
</svg>
