<svg width="32" height="32" viewBox="0 0 32 32" fill="none" xmlns="http://www.w3.org/2000/svg">
    <path opacity=".4" d="M21.587 2.667H10.413c-4.853 0-7.746 2.893-7.746 7.746v11.16c0 4.867 2.893 7.76 7.746 7.76h11.16c4.854 0 7.747-2.893 7.747-7.746V10.413c.013-4.853-2.88-7.746-7.733-7.746z" fill="#009C7B"/>
    <path d="M14.32 21.707a.99.99 0 0 1-.707-.294 1.006 1.006 0 0 1 0-1.413l4-4-4-4a1.006 1.006 0 0 1 0-1.413 1.006 1.006 0 0 1 1.414 0l4.706 4.706a1.006 1.006 0 0 1 0 1.414l-4.706 4.706a.99.99 0 0 1-.707.294z" fill="#009C7B"/>
</svg>
